# xmcd
#
# Track frame offsets:
#  150
#  11020
#  30497
#  44300
#  62580
#  79387
#  99766
#  117459
#  134557
#  153552
#  165080
#  178115
#  202716
#
# Disc length: 2890 seconds
#
# Revision: 2
# Processed by: cddbd v1.5.1PL2 Copyright (c) Steve Scherf et al.
# Submitted via: Collectorz.com_Music_Collector 6.11
#
DISCID=9d0b480d
DTITLE=Reba Russell Band - Broke Down But Not Out
DYEAR=2005
DGENRE=Blues -  Blues Female Vocalist
TTITLE0=Got A One Track Mind
TTITLE1=Sister Friend
TTITLE2=Your Up Is Down
TTITLE3=Just One More
TTITLE4=Off The Clock (And On) The Floor
TTITLE5=Need A Healin'
TTITLE6=Just Stay Stoned
TTITLE7=House Of Love
TTITLE8=Without Your Love
TTITLE9=It Takes A Mighty Good Man
TTITLE10=Rivertown
TTITLE11=Paint It Red
TTITLE12=Hard To Live
EXTD=
EXTT0=
EXTT1=
EXTT2=
EXTT3=
EXTT4=
EXTT5=
EXTT6=
EXTT7=
EXTT8=
EXTT9=
EXTT10=
EXTT11=
EXTT12=
PLAYORDER=
